<?xml version="1.0" encoding="UTF-8"?><svg id="Capa_1" xmlns="http://www.w3.org/2000/svg" viewBox="0 0 270 120"><defs><style>.cls-1{fill:#0056a4;}.cls-1,.cls-2{stroke-width:0px;}.cls-2{fill:#e26746;}</style></defs><path class="cls-1" d="M30.68,59.08c1.11-5.09,5.66-7.75,11.02-7.75,1.82,0,3.71.24,5.36,1.11l-.91,4.31c-1.65-.81-3.03-1.11-4.41-1.11-3,0-5.05,1.58-5.56,3.94-.54,2.59.84,4.55,4.04,4.55,1.65,0,3.2-.4,4.78-1.15l-.94,4.38c-2.16,1.11-4.11,1.35-5.93,1.35-5.49,0-8.73-3.47-7.45-9.64Z"/><path class="cls-1" d="M47.43,59.48c.94-4.51,4.75-8.15,10.98-8.15s8.86,3.64,7.68,9.23c-.98,4.48-4.72,8.15-11.02,8.15s-8.83-3.67-7.65-9.23ZM55.95,64.44c2.46,0,4.11-1.89,4.65-4.28.57-2.7-.34-4.55-3.07-4.55-2.46,0-4.14,1.85-4.65,4.28-.57,2.66.34,4.55,3.07,4.55Z"/><path class="cls-1" d="M70.17,51.67h5.63l-.77,3.71c1.72-2.86,3.98-4.04,6.33-4.04s4.21,1.25,4.35,4.48c2.02-3.3,4.58-4.48,7.11-4.48,3.23,0,5.02,2.36,3.81,7.99l-1.92,9.06h-5.63l1.92-9.06c.4-1.82.77-3.87-1.11-3.87s-4.14,1.68-6.17,11.76l-.24,1.18h-5.63l1.89-8.93c.4-1.82.81-4.01-1.11-4.01s-4.04,1.75-6.17,11.79l-.2,1.15h-5.63l3.54-16.71Z"/><path class="cls-1" d="M98.81,59.45c1.15-5.36,5.43-8.12,11.22-8.12,4.25,0,6.91,2.06,6.2,5.43-.47,2.49-2.49,5.26-9.13,5.26-1.25,0-2.19-.17-3.07-.57.13,2.29,1.75,3.2,4.75,3.2,1.89,0,3.77-.4,5.49-1.21l-.71,3.37c-2.02,1.38-4.55,1.92-7.28,1.92-5.9,0-8.69-3.64-7.48-9.27ZM107.04,58.74c2.56,0,3.81-.78,4.01-1.85.27-1.11-.37-1.89-1.89-1.89-1.79,0-3.74.81-4.65,3.37.67.24,1.45.37,2.53.37Z"/><path class="cls-1" d="M122.54,59.28l-3.3-7.62h5.59l2.02,5.66,4.41-5.66h6.17l-7.14,8.32,3.47,8.39h-5.56l-2.29-6.1-4.92,6.1h-6.13l7.68-9.1Z"/><path class="cls-1" d="M163.19,55.41c-2.46,0-4.14,1.85-4.65,4.28-.57,2.66.34,4.55,3.07,4.55,2.46,0,4.11-1.89,4.65-4.28.57-2.69-.34-4.55-3.07-4.55Z"/><path class="cls-1" d="M178.03,28.26c-17.53,0-33.69,14.21-36.1,31.74-2.4,17.53,9.86,31.74,27.39,31.74s33.69-14.21,36.1-31.74c2.4-17.53-9.86-31.74-27.39-31.74ZM171.75,60.36c-.98,4.48-4.72,8.15-11.02,8.15s-8.83-3.67-7.65-9.23c.94-4.52,4.75-8.15,10.98-8.15s8.86,3.64,7.68,9.23ZM191.83,59.49l-1.85,8.69h-5.63l1.89-8.69c.57-2.83.17-4.25-1.62-4.25-2.12,0-4.41,1.92-5.96,9.33l-.74,3.61h-5.63l3.54-16.71h5.63l-.81,3.81c1.72-2.96,4.14-4.14,6.77-4.14,3.71,0,5.66,2.59,4.41,8.36Z"/><path class="cls-1" d="M206.72,35.11c-1.46,0-1.85,1.91-1.05,3.13,3.29,5.05,6.24,12.89,5.38,21.51-.84,8.44-4.5,15.98-10.84,21.1-1.23,1-.78,3.3.81,3.31,12.89.04,23.44-11.12,24.72-24.58,1.86-19.55-13.13-24.49-19.01-24.48Z"/><path class="cls-2" d="M228.25,42.3c-1.07,0-1.29,1.36-.77,2.3,2.75,4.98,3.37,11.53,2.81,15.81-.83,6.33-2.73,10.78-6.7,15.51-1.16,1.38-.57,2.54.6,2.43,7.56-.73,14.42-9.91,15.3-18.65,1.21-11.91-6.91-17.42-11.23-17.41Z"/></svg>