<?xml version="1.0" encoding="UTF-8"?><svg id="Capa_1" xmlns="http://www.w3.org/2000/svg" viewBox="0 0 150 120"><defs><style>.cls-1{fill:#0056a4;}.cls-1,.cls-2{stroke-width:0px;}.cls-2{fill:#e26746;}</style></defs><path class="cls-1" d="M47.58,55.41c-2.46,0-4.14,1.85-4.65,4.28-.57,2.66.34,4.55,3.07,4.55,2.46,0,4.11-1.89,4.65-4.28.57-2.69-.34-4.55-3.07-4.55Z"/><path class="cls-1" d="M62.41,28.26c-17.53,0-33.69,14.21-36.1,31.74-2.4,17.53,9.86,31.74,27.39,31.74s33.69-14.21,36.1-31.74c2.4-17.53-9.86-31.74-27.39-31.74ZM56.13,60.36c-.98,4.48-4.72,8.15-11.02,8.15s-8.83-3.67-7.65-9.23c.94-4.52,4.75-8.15,10.98-8.15s8.86,3.64,7.68,9.23ZM76.22,59.49l-1.85,8.69h-5.63l1.89-8.69c.57-2.83.17-4.25-1.62-4.25-2.12,0-4.41,1.92-5.96,9.33l-.74,3.61h-5.63l3.54-16.71h5.63l-.81,3.81c1.72-2.96,4.14-4.14,6.77-4.14,3.71,0,5.66,2.59,4.41,8.36Z"/><path class="cls-1" d="M91.11,35.11c-1.46,0-1.85,1.91-1.05,3.13,3.29,5.05,6.24,12.89,5.38,21.51-.84,8.44-4.5,15.98-10.84,21.1-1.23,1-.78,3.3.81,3.31,12.89.04,23.44-11.12,24.72-24.58,1.86-19.55-13.13-24.49-19.01-24.48Z"/><path class="cls-2" d="M112.63,42.3c-1.07,0-1.29,1.36-.77,2.3,2.75,4.98,3.37,11.53,2.81,15.81-.83,6.33-2.73,10.78-6.7,15.51-1.16,1.38-.57,2.54.6,2.43,7.56-.73,14.42-9.91,15.3-18.65,1.21-11.91-6.91-17.42-11.23-17.41Z"/></svg>